<?xml version="1.0" encoding="utf-8"?>
<!-- Generator: Adobe Illustrator 22.0.1, SVG Export Plug-In . SVG Version: 6.00 Build 0)  -->
<svg version="1.1" id="Layer_1" xmlns="http://www.w3.org/2000/svg" xmlns:xlink="http://www.w3.org/1999/xlink" x="0px" y="0px"
	 viewBox="0 0 28 28" style="enable-background:new 0 0 28 28;" xml:space="preserve">
<style type="text/css">
	.st0{fill:#48494A;}
	.st1{fill:none;stroke:#494949;stroke-width:2;stroke-miterlimit:10;}
</style>
<g>
	<g>
		<path class="st0" d="M16.9,6.9h-6c-2.2,0-4.1,1.8-4.1,4.1v6c0,2.2,1.8,4.1,4.1,4.1h6c2.2,0,4.1-1.8,4.1-4.1v-6
			C21,8.7,19.2,6.9,16.9,6.9 M19.7,17.1c0,1.6-1.2,2.7-2.7,2.7h-6.1c-1.6,0-2.7-1.2-2.7-2.7V11c0-1.6,1.2-2.7,2.7-2.7H17
			c1.6,0,2.7,1.2,2.7,2.7V17.1z"/>
		<path class="st0" d="M13.9,10.4c-2.1,0-3.6,1.7-3.6,3.6s1.7,3.6,3.6,3.6s3.8-1.6,3.8-3.6S16,10.4,13.9,10.4 M13.9,16.5
			c-1.3,0-2.3-1-2.3-2.3s1-2.3,2.3-2.3s2.3,1,2.3,2.3C16.4,15.3,15.2,16.5,13.9,16.5"/>
		<path class="st0" d="M17.7,9.3c-0.5,0-0.9,0.4-0.9,0.9c0,0.5,0.4,0.9,0.9,0.9c0.5,0,0.9-0.4,0.9-0.9C18.6,9.7,18.2,9.3,17.7,9.3"
			/>
	</g>
</g>
<g>
	<g>
		<g>
			<path class="st1" d="M25.2,4.7c0-1.4-1.2-2.6-2.6-2.6h-8.7H5.2c-1.4,0-2.6,1.2-2.6,2.6v18.7c0,1.4,1.2,2.6,2.6,2.6h17.2
				c1.4,0,2.6-1.2,2.6-2.6L25.2,4.7z"/>
		</g>
	</g>
</g>
</svg>
