<?xml version="1.0" encoding="utf-8"?>
<!-- Generator: Adobe Illustrator 22.0.1, SVG Export Plug-In . SVG Version: 6.00 Build 0)  -->
<svg version="1.1" id="Layer_1" xmlns="http://www.w3.org/2000/svg" xmlns:xlink="http://www.w3.org/1999/xlink" x="0px" y="0px"
	 viewBox="0 0 28 28" style="enable-background:new 0 0 28 28;" xml:space="preserve">
<style type="text/css">
	.st0{fill:#48494A;}
	.st1{fill:none;stroke:#494949;stroke-width:2;stroke-miterlimit:10;}
</style>
<path class="st0" d="M20.9,9.9c-0.5,0.3-1,0.4-1.6,0.4c0.7-0.4,1-0.9,1.3-1.6c-0.5,0.4-1.2,0.5-1.8,0.7c-0.5-0.5-1.3-0.9-2.1-0.9
	c-1.6,0-2.9,1.3-2.9,2.9c0,0.3,0,0.4,0,0.7c-2.4-0.1-4.4-1.3-5.9-3c-0.3,0.4-0.4,0.9-0.4,1.4c0,1,0.5,1.8,1.3,2.4
	c-0.5,0-0.9-0.1-1.3-0.4l0,0c0,1.4,1,2.5,2.2,2.7c-0.3,0-0.5,0.1-0.8,0.1c-0.1,0-0.4,0-0.5,0c0.4,1.2,1.4,2,2.6,2
	c-0.9,0.8-2.2,1.2-3.5,1.2c-0.3,0-0.4,0-0.7,0c1.3,0.8,2.7,1.3,4.3,1.3c5.2,0,8.1-4.3,8.1-8.1c0-0.1,0-0.3,0-0.4
	C20,11,20.5,10.6,20.9,9.9"/>
<g>
	<g>
		<g>
			<path class="st1" d="M25.2,4.7c0-1.4-1.2-2.6-2.6-2.6h-8.7H5.2c-1.4,0-2.6,1.2-2.6,2.6v18.7c0,1.4,1.2,2.6,2.6,2.6h17.2
				c1.4,0,2.6-1.2,2.6-2.6L25.2,4.7z"/>
		</g>
	</g>
</g>
</svg>
